<mxfile host="app.diagrams.net" modified="2024-01-25T18:58:07.616Z" agent="Mozilla/5.0 (Windows NT 10.0; Win64; x64) AppleWebKit/537.36 (KHTML, like Gecko) Chrome/120.0.0.0 Safari/537.36" etag="9a8ubh983NsIiPv5Kaj4" version="23.0.2" type="google">
  <diagram name="Page-1" id="CctdIiAo0l05OEcl6tz3">
    <mxGraphModel grid="1" page="1" gridSize="10" guides="1" tooltips="1" connect="1" arrows="1" fold="1" pageScale="1" pageWidth="850" pageHeight="1100" math="0" shadow="0">
      <root>
        <mxCell id="0" />
        <mxCell id="1" parent="0" />
        <mxCell id="AALltbPctCnufQfdupac-1" value="" style="rounded=0;whiteSpace=wrap;html=1;" vertex="1" parent="1">
          <mxGeometry x="80" y="110" width="600" height="570" as="geometry" />
        </mxCell>
        <mxCell id="AALltbPctCnufQfdupac-2" style="edgeStyle=orthogonalEdgeStyle;rounded=0;orthogonalLoop=1;jettySize=auto;html=1;exitX=1;exitY=0.25;exitDx=0;exitDy=0;entryX=0;entryY=0.25;entryDx=0;entryDy=0;" edge="1" parent="1" source="AALltbPctCnufQfdupac-3" target="AALltbPctCnufQfdupac-7">
          <mxGeometry relative="1" as="geometry" />
        </mxCell>
        <mxCell id="AALltbPctCnufQfdupac-3" value=":Customer" style="whiteSpace=wrap;html=1;aspect=fixed;" vertex="1" parent="1">
          <mxGeometry x="120" y="192.5" width="80" height="80" as="geometry" />
        </mxCell>
        <mxCell id="AALltbPctCnufQfdupac-4" style="edgeStyle=orthogonalEdgeStyle;rounded=0;orthogonalLoop=1;jettySize=auto;html=1;exitX=0.25;exitY=1;exitDx=0;exitDy=0;entryX=0.75;entryY=0;entryDx=0;entryDy=0;" edge="1" parent="1" source="AALltbPctCnufQfdupac-7" target="AALltbPctCnufQfdupac-10">
          <mxGeometry relative="1" as="geometry" />
        </mxCell>
        <mxCell id="AALltbPctCnufQfdupac-5" style="edgeStyle=orthogonalEdgeStyle;rounded=0;orthogonalLoop=1;jettySize=auto;html=1;exitX=0.75;exitY=1;exitDx=0;exitDy=0;entryX=0.25;entryY=0;entryDx=0;entryDy=0;" edge="1" parent="1" source="AALltbPctCnufQfdupac-7" target="AALltbPctCnufQfdupac-16">
          <mxGeometry relative="1" as="geometry" />
        </mxCell>
        <mxCell id="AALltbPctCnufQfdupac-6" style="edgeStyle=orthogonalEdgeStyle;rounded=0;orthogonalLoop=1;jettySize=auto;html=1;exitX=0;exitY=0.75;exitDx=0;exitDy=0;entryX=1;entryY=0.75;entryDx=0;entryDy=0;dashed=1;dashPattern=8 8;" edge="1" parent="1" source="AALltbPctCnufQfdupac-7" target="AALltbPctCnufQfdupac-3">
          <mxGeometry relative="1" as="geometry" />
        </mxCell>
        <mxCell id="AALltbPctCnufQfdupac-7" value=":Order&lt;br&gt;Processing&lt;br&gt;System" style="whiteSpace=wrap;html=1;aspect=fixed;" vertex="1" parent="1">
          <mxGeometry x="385" y="192.5" width="80" height="80" as="geometry" />
        </mxCell>
        <mxCell id="AALltbPctCnufQfdupac-8" style="edgeStyle=orthogonalEdgeStyle;rounded=0;orthogonalLoop=1;jettySize=auto;html=1;exitX=0.75;exitY=1;exitDx=0;exitDy=0;entryX=0.25;entryY=0;entryDx=0;entryDy=0;" edge="1" parent="1" source="AALltbPctCnufQfdupac-10">
          <mxGeometry relative="1" as="geometry">
            <mxPoint x="405" y="582.5" as="targetPoint" />
          </mxGeometry>
        </mxCell>
        <mxCell id="AALltbPctCnufQfdupac-9" style="edgeStyle=orthogonalEdgeStyle;rounded=0;orthogonalLoop=1;jettySize=auto;html=1;exitX=0.25;exitY=0;exitDx=0;exitDy=0;entryX=0;entryY=1;entryDx=0;entryDy=0;dashed=1;dashPattern=8 8;" edge="1" parent="1" source="AALltbPctCnufQfdupac-10" target="AALltbPctCnufQfdupac-7">
          <mxGeometry relative="1" as="geometry">
            <Array as="points">
              <mxPoint x="280" y="302.5" />
              <mxPoint x="385" y="302.5" />
            </Array>
          </mxGeometry>
        </mxCell>
        <mxCell id="AALltbPctCnufQfdupac-10" value=":Kitchen" style="whiteSpace=wrap;html=1;aspect=fixed;" vertex="1" parent="1">
          <mxGeometry x="260" y="382.5" width="80" height="80" as="geometry" />
        </mxCell>
        <mxCell id="AALltbPctCnufQfdupac-11" style="edgeStyle=orthogonalEdgeStyle;rounded=0;orthogonalLoop=1;jettySize=auto;html=1;exitX=0;exitY=0;exitDx=0;exitDy=0;entryX=0.25;entryY=1;entryDx=0;entryDy=0;dashed=1;dashPattern=8 8;" edge="1" parent="1" target="AALltbPctCnufQfdupac-10">
          <mxGeometry relative="1" as="geometry">
            <Array as="points">
              <mxPoint x="385" y="552.5" />
              <mxPoint x="280" y="552.5" />
            </Array>
            <mxPoint x="385" y="582.5" as="sourcePoint" />
          </mxGeometry>
        </mxCell>
        <mxCell id="AALltbPctCnufQfdupac-12" style="edgeStyle=orthogonalEdgeStyle;rounded=0;orthogonalLoop=1;jettySize=auto;html=1;exitX=1;exitY=0;exitDx=0;exitDy=0;entryX=0.75;entryY=1;entryDx=0;entryDy=0;dashed=1;dashPattern=8 8;" edge="1" parent="1" target="AALltbPctCnufQfdupac-16">
          <mxGeometry relative="1" as="geometry">
            <Array as="points">
              <mxPoint x="465" y="552.5" />
              <mxPoint x="580" y="552.5" />
            </Array>
            <mxPoint x="465" y="582.5" as="sourcePoint" />
          </mxGeometry>
        </mxCell>
        <mxCell id="AALltbPctCnufQfdupac-13" value=":Notification&lt;br&gt;System" style="whiteSpace=wrap;html=1;aspect=fixed;" vertex="1" parent="1">
          <mxGeometry x="385" y="580" width="80" height="80" as="geometry" />
        </mxCell>
        <mxCell id="AALltbPctCnufQfdupac-14" style="edgeStyle=orthogonalEdgeStyle;rounded=0;orthogonalLoop=1;jettySize=auto;html=1;exitX=0.25;exitY=1;exitDx=0;exitDy=0;entryX=0.75;entryY=0;entryDx=0;entryDy=0;" edge="1" parent="1" source="AALltbPctCnufQfdupac-16">
          <mxGeometry relative="1" as="geometry">
            <mxPoint x="445" y="582.5" as="targetPoint" />
          </mxGeometry>
        </mxCell>
        <mxCell id="AALltbPctCnufQfdupac-15" style="edgeStyle=orthogonalEdgeStyle;rounded=0;orthogonalLoop=1;jettySize=auto;html=1;exitX=0.75;exitY=0;exitDx=0;exitDy=0;entryX=1;entryY=1;entryDx=0;entryDy=0;dashed=1;dashPattern=8 8;" edge="1" parent="1" source="AALltbPctCnufQfdupac-16" target="AALltbPctCnufQfdupac-7">
          <mxGeometry relative="1" as="geometry">
            <Array as="points">
              <mxPoint x="580" y="302.5" />
              <mxPoint x="465" y="302.5" />
            </Array>
          </mxGeometry>
        </mxCell>
        <mxCell id="AALltbPctCnufQfdupac-16" value=":Inventory&lt;br&gt;System" style="whiteSpace=wrap;html=1;aspect=fixed;" vertex="1" parent="1">
          <mxGeometry x="520" y="382.5" width="80" height="80" as="geometry" />
        </mxCell>
        <mxCell id="AALltbPctCnufQfdupac-17" value="sendOrderDetails" style="text;html=1;align=center;verticalAlign=middle;resizable=0;points=[];autosize=1;strokeColor=none;fillColor=none;" vertex="1" parent="1">
          <mxGeometry x="220" y="187.5" width="120" height="30" as="geometry" />
        </mxCell>
        <mxCell id="AALltbPctCnufQfdupac-18" value="initiateFoodPreparation" style="text;html=1;align=center;verticalAlign=middle;resizable=0;points=[];autosize=1;strokeColor=none;fillColor=none;" vertex="1" parent="1">
          <mxGeometry x="270" y="302.5" width="150" height="30" as="geometry" />
        </mxCell>
        <mxCell id="AALltbPctCnufQfdupac-19" value="checkInventory" style="text;html=1;align=center;verticalAlign=middle;resizable=0;points=[];autosize=1;strokeColor=none;fillColor=none;" vertex="1" parent="1">
          <mxGeometry x="465" y="302.5" width="100" height="30" as="geometry" />
        </mxCell>
        <mxCell id="AALltbPctCnufQfdupac-22" value="return message" style="text;html=1;align=center;verticalAlign=middle;resizable=0;points=[];autosize=1;strokeColor=none;fillColor=none;" vertex="1" parent="1">
          <mxGeometry x="460" y="527.5" width="110" height="30" as="geometry" />
        </mxCell>
        <mxCell id="AALltbPctCnufQfdupac-23" value="return message" style="text;html=1;align=center;verticalAlign=middle;resizable=0;points=[];autosize=1;strokeColor=none;fillColor=none;" vertex="1" parent="1">
          <mxGeometry x="290" y="527.5" width="110" height="30" as="geometry" />
        </mxCell>
        <mxCell id="AALltbPctCnufQfdupac-24" value="confirmItemsAvailable" style="text;html=1;align=center;verticalAlign=middle;resizable=0;points=[];autosize=1;strokeColor=none;fillColor=none;" vertex="1" parent="1">
          <mxGeometry x="460" y="277.5" width="140" height="30" as="geometry" />
        </mxCell>
        <mxCell id="AALltbPctCnufQfdupac-25" value="notifyOrderReady" style="text;html=1;align=center;verticalAlign=middle;resizable=0;points=[];autosize=1;strokeColor=none;fillColor=none;" vertex="1" parent="1">
          <mxGeometry x="270" y="277.5" width="120" height="30" as="geometry" />
        </mxCell>
        <mxCell id="AALltbPctCnufQfdupac-26" value="displayNotificationOrderReady" style="text;html=1;align=center;verticalAlign=middle;resizable=0;points=[];autosize=1;strokeColor=none;fillColor=none;" vertex="1" parent="1">
          <mxGeometry x="200" y="230" width="190" height="30" as="geometry" />
        </mxCell>
      </root>
    </mxGraphModel>
  </diagram>
</mxfile>
